<?xml version="1.0" standalone="no"?><!DOCTYPE svg PUBLIC "-//W3C//DTD SVG 1.1//EN" "http://www.w3.org/Graphics/SVG/1.1/DTD/svg11.dtd"><svg width="100%" height="100%" viewBox="0 0 3334 2500" version="1.1" xmlns="http://www.w3.org/2000/svg" xmlns:xlink="http://www.w3.org/1999/xlink" xml:space="preserve" style="fill-rule:evenodd;clip-rule:evenodd;stroke-linecap:round;stroke-linejoin:round;stroke-miterlimit:1.41421;"><g><path d="M1180.34,1220.66l52.606,0c30.426,-40.877 53.593,-76.529 69.503,-106.954c15.91,-30.426 23.864,-50.4 23.864,-59.922c0,-13.239 -11.38,-19.858 -34.141,-19.858c-13.239,1.161 -36.697,4.006 -70.374,8.535c-33.677,4.529 -66.309,9.929 -97.896,16.2c-28.335,5.342 -51.038,10.858 -68.109,16.548c-17.071,5.691 -29.09,10.394 -36.058,14.11c-6.967,3.716 -11.264,6.387 -12.89,8.013c17.187,-0.929 31.703,-1.394 43.548,-1.394c18.581,0 27.871,2.09 27.871,6.271c0,1.858 -6.503,4.239 -19.51,7.142c-13.006,2.903 -25.315,5.981 -36.928,9.232c-11.381,3.252 -22.471,7.084 -33.271,11.497c-10.8,4.413 -17.361,6.619 -19.684,6.619c-5.342,0 -9.754,-2.032 -13.238,-6.097c-3.484,-4.064 -5.226,-9 -5.226,-14.806c0,-3.948 3.194,-14.226 9.581,-30.832c6.387,-16.606 15.387,-33.329 26.999,-50.167c11.613,-16.839 26.013,-29.323 43.2,-37.452c6.271,-3.019 26.303,-8.477 60.096,-16.374c33.793,-7.896 71.941,-15.096 114.444,-21.599c42.503,-6.504 81.406,-9.755 116.709,-9.755c21.367,0 38.496,2.961 51.387,8.884c12.89,5.922 19.335,18.638 19.335,38.148c0,6.271 -2.323,15.967 -6.968,29.09c-4.645,13.122 -12.019,29.903 -22.122,50.341c-10.103,20.439 -22.413,42.851 -36.929,67.238c-14.516,24.387 -31.064,50.168 -49.645,77.342l53.652,0l-46.336,66.541c-6.27,0.464 -14.109,0.813 -23.515,1.045c-9.407,0.232 -19.684,0.581 -30.832,1.045c-28.568,37.161 -59.516,72.116 -92.845,104.864c-33.328,32.748 -63.522,58.993 -90.58,78.735c-27.057,19.741 -46.044,29.612 -56.96,29.612c-4.413,0 -8.245,-1.451 -11.497,-4.355c-3.252,-2.903 -4.877,-6.677 -4.877,-11.322c0,-3.948 5.167,-14.052 15.503,-30.309c10.335,-16.258 24.677,-31.471 43.025,-45.639c18.348,-14.167 39.251,-22.064 62.709,-23.69c9.523,-9.987 17.71,-18.871 24.561,-26.651c6.852,-7.781 16.549,-19.045 29.09,-33.794c12.542,-14.748 22.181,-26.07 28.916,-33.967l-104.863,5.226c-11.381,0.464 -19.22,-0.058 -23.516,-1.568c-4.297,-1.51 -6.445,-5.284 -6.445,-11.322c0,0 1.161,-2.962 3.483,-8.884c2.323,-5.923 4.762,-11.09 7.317,-15.503c3.716,-6.736 6.677,-10.8 8.883,-12.194c2.207,-1.393 8.536,-3.251 18.987,-5.574l64.103,-15.677c17.187,-4.413 29.148,-6.619 35.883,-6.619Z" style="fill:#8b8b8b;fill-rule:nonzero;"/><path d="M1387.63,1222.06c35.303,-32.051 69.561,-55.857 102.773,-71.419c33.213,-15.561 58.877,-23.341 76.993,-23.341c4.877,0 9.406,2.032 13.587,6.096c4.181,4.065 7.49,8.768 9.929,14.11c2.439,5.342 3.658,9.29 3.658,11.845c0,4.181 -1.626,7.258 -4.877,9.232c-3.252,1.974 -8.942,4.355 -17.071,7.142c1.626,3.716 3.716,8.477 6.271,14.284c2.554,5.806 4.529,10.509 5.922,14.109c1.394,3.6 2.09,6.794 2.09,9.581c0,5.574 -5.632,15.968 -16.896,31.18c-11.265,15.213 -19.161,26.419 -23.69,33.619c-4.529,7.2 -6.794,16.026 -6.794,26.477c0,17.187 7.897,25.781 23.69,25.781c16.258,0 41.69,-15.213 76.296,-45.638l0,21.251c-58.76,65.264 -100.799,97.896 -126.115,97.896c-9.058,0 -15.503,-2.961 -19.335,-8.884c-3.832,-5.922 -5.748,-14.69 -5.748,-26.303c0,-18.348 6.619,-44.941 19.858,-79.78c-33.91,37.626 -59.109,64.393 -75.6,80.303c-16.49,15.909 -30.077,23.864 -40.761,23.864c-5.109,0 -11.496,-4.413 -19.161,-13.239c-7.664,-8.825 -14.458,-20.264 -20.38,-34.315c-5.923,-14.052 -8.884,-28.626 -8.884,-43.723c0,-10.916 1.045,-20.032 3.136,-27.348c2.09,-7.316 6.154,-14.806 12.193,-22.47c6.039,-7.665 15.677,-17.768 28.916,-30.31ZM1554.51,1183.74c-60.387,27.638 -103.412,51.096 -129.076,70.373c-25.665,19.278 -38.497,39.136 -38.497,59.574c0,7.432 1.278,13.529 3.832,18.29c2.555,4.762 6.039,7.142 10.452,7.142c2.555,0 7.084,-1.626 13.587,-4.877c24.387,-14.4 46.683,-33.155 66.89,-56.264c20.206,-23.11 44.477,-54.522 72.812,-94.238Z" style="fill:#8b8b8b;fill-rule:nonzero;"/><path d="M1871.19,1221.36c-40.877,45.523 -61.316,77.225 -61.316,95.109c0,9.987 4.065,14.981 12.194,14.981c6.735,0 15.503,-3.542 26.303,-10.626c10.8,-7.084 27.696,-19.684 50.689,-37.8l0,24.039c-32.98,32.516 -58.296,55.973 -75.947,70.373c-17.652,14.4 -32.052,21.6 -43.2,21.6c-19.045,0 -28.567,-12.542 -28.567,-37.625c0,-7.432 1.161,-14.749 3.484,-21.948c2.322,-7.2 5.516,-14.691 9.58,-22.471c4.065,-7.781 10.277,-18.929 18.639,-33.445c8.361,-14.516 17.999,-30.948 28.915,-49.296c-13.238,6.735 -29.844,20.09 -49.818,40.064c-13.007,12.542 -24.039,24.445 -33.097,35.709c-9.058,11.264 -18.755,23.806 -29.09,37.626c-10.335,13.819 -17.884,23.109 -22.645,27.87c-4.761,4.761 -9.58,7.142 -14.458,7.142c-7.432,0 -14.284,-7.78 -20.554,-23.342c-6.271,-15.561 -9.407,-33.677 -9.407,-54.348c0,-12.774 1.452,-22.761 4.355,-29.961c2.903,-7.199 8.651,-17.419 17.245,-30.657c16.026,-24.619 29.845,-42.677 41.458,-54.174c11.612,-11.497 22.761,-17.245 33.445,-17.245c7.432,0 13.412,1.277 17.941,3.832c4.529,2.555 6.794,6.503 6.794,11.845c0,2.323 -0.697,4.762 -2.091,7.316c-1.393,2.555 -2.961,4.878 -4.703,6.968c-1.742,2.09 -5.4,6.155 -10.974,12.193c-36.696,40.645 -55.044,67.006 -55.044,79.084c0,6.735 2.206,10.103 6.619,10.103c2.787,0 8.187,-4.471 16.2,-13.413c8.012,-8.942 18.348,-20.671 31.006,-35.187c12.658,-14.516 27.638,-29.671 44.941,-45.464c17.303,-15.793 36.987,-31.006 59.051,-45.638c12.31,-8.594 22.529,-12.89 30.658,-12.89c3.716,0 7.374,5.109 10.974,15.328c3.6,10.22 5.4,20.555 5.4,31.007c0,5.109 -4.993,12.89 -14.98,23.341Z" style="fill:#8b8b8b;fill-rule:nonzero;"/><path d="M2331.06,1283.03l0,22.645c-39.019,43.432 -74.845,79.258 -107.477,107.477c-32.632,28.219 -64.509,49.935 -95.631,65.148c-31.123,15.212 -61.2,22.819 -90.232,22.819c-25.083,0 -46.625,-4.994 -64.625,-14.981c-18,-9.987 -31.587,-24.561 -40.761,-43.722c-9.174,-19.161 -13.761,-41.864 -13.761,-68.109c0,-20.671 3.31,-42.561 9.929,-65.67c6.619,-23.11 16.2,-46.452 28.742,-70.026c12.541,-23.574 27.928,-47.902 46.16,-72.986c18.233,-25.084 39.658,-51.445 64.277,-79.083c25.548,-28.568 50.748,-53.245 75.6,-74.032c24.851,-20.787 47.38,-37.103 67.586,-48.948c20.206,-11.845 38.961,-20.671 56.264,-26.477c17.303,-5.806 31.645,-8.71 43.026,-8.71c11.612,0 21.483,2.788 29.612,8.362c8.129,5.574 14.4,13.703 18.813,24.387c4.413,10.683 6.619,22.993 6.619,36.928c0,26.245 -8.942,55.451 -26.825,87.619c-17.884,32.167 -40.181,63.231 -66.89,93.193c-26.71,29.961 -52.2,54.405 -76.47,73.334c-24.271,18.929 -41.748,28.394 -52.432,28.394c-7.2,0 -13.877,-2.846 -20.032,-8.536c-6.155,-5.69 -9.232,-12.135 -9.232,-19.335c0,-13.239 7.025,-29.264 21.077,-48.077c14.051,-18.813 29.38,-36.058 45.987,-51.735c16.606,-15.677 26.535,-23.516 29.786,-23.516c1.626,0 2.439,0.697 2.439,2.09c0,2.091 -1.219,5.691 -3.658,10.8c-2.439,5.11 -3.658,8.245 -3.658,9.407c0,1.858 0.697,2.787 2.09,2.787c3.949,0 15.329,-10.568 34.142,-31.703c18.813,-21.136 36.058,-44.419 51.735,-69.851c15.677,-25.432 23.516,-46.277 23.516,-62.535c0,-6.736 -1.452,-11.903 -4.355,-15.503c-2.903,-3.6 -7.258,-5.4 -13.064,-5.4c-16.258,0 -40.935,13.18 -74.032,39.541c-33.096,26.361 -67.006,59.922 -101.728,100.683c-34.722,40.761 -63.696,82.858 -86.922,126.289c-23.225,43.432 -34.838,81.638 -34.838,114.619c0,19.045 2.845,34.954 8.535,47.728c5.69,12.774 14.052,22.645 25.084,29.613c11.032,6.968 24.329,10.452 39.89,10.452c33.677,0 71.883,-13.123 114.618,-39.368c42.735,-26.245 89.767,-64.915 141.096,-116.012Z" style="fill:#8b8b8b;fill-rule:nonzero;"/><path d="M2494.45,1280.59l0,25.78c-48.542,64.335 -88.025,96.502 -118.451,96.502c-16.49,0 -29.438,-9 -38.845,-26.999c-9.406,-18 -14.109,-41.632 -14.109,-70.897c0,-23.69 5.574,-51.851 16.722,-84.483c11.148,-32.632 26.071,-65.728 44.767,-99.289c18.697,-33.561 38.09,-62.825 58.181,-87.793c20.09,-24.967 38.728,-42.445 55.915,-52.432c6.968,-4.18 12.426,-6.27 16.374,-6.27c4.878,0 8.129,2.148 9.755,6.445c1.626,4.296 2.439,11.67 2.439,22.122c0,32.284 -13.123,71.941 -39.368,118.973c-26.245,47.032 -62.825,95.051 -109.741,144.057c-2.322,12.077 -3.483,21.367 -3.483,27.871c0,14.864 3.193,26.941 9.58,36.232c6.387,9.29 15.271,13.935 26.651,13.935c5.807,0 12.078,-2.265 18.813,-6.794c6.736,-4.529 13.819,-10.161 21.252,-16.896c7.432,-6.736 21.948,-20.09 43.548,-40.064ZM2390.28,1217.88c12.077,-11.846 23.748,-25.316 35.012,-40.413c11.265,-15.097 21.891,-31.238 31.878,-48.425c9.987,-17.187 17.825,-32.632 23.515,-46.335c5.691,-13.704 8.536,-24.039 8.536,-31.007c0,-5.342 -1.858,-8.012 -5.574,-8.012c-1.394,0 -4.065,1.277 -8.013,3.832c-14.168,11.613 -30.077,34.316 -47.729,68.109c-17.651,33.793 -30.193,67.877 -37.625,102.251Z" style="fill:#8b8b8b;fill-rule:nonzero;"/><path d="M2655.4,1260.73c-33.677,44.593 -59.283,76.296 -76.819,95.109c-17.535,18.812 -31.877,28.219 -43.025,28.219c-8.826,0 -16.955,-3.658 -24.387,-10.974c-7.432,-7.317 -13.18,-17.187 -17.245,-29.613c-4.064,-12.426 -6.097,-25.722 -6.097,-39.89c0,-9.29 0.871,-17.651 2.613,-25.084c1.742,-7.432 5.052,-15.619 9.929,-24.561c4.878,-8.942 11.323,-18.638 19.335,-29.09c8.013,-10.451 17.826,-22.296 29.439,-35.535c6.968,-8.129 12.832,-14.98 17.593,-20.555c4.762,-5.574 9.407,-9.348 13.936,-11.322c4.529,-1.974 11.903,-2.961 22.122,-2.961c7.432,0 14.516,0.987 21.251,2.961c6.736,1.974 10.104,4.006 10.104,6.097c0,4.18 -3.426,11.729 -10.278,22.645c-6.851,10.916 -17.883,24.212 -33.096,39.89c-15.213,15.677 -32.806,31.064 -52.78,46.16c-4.413,13.704 -6.62,24.155 -6.62,31.355c0,9.987 3.833,14.98 11.497,14.98c2.787,0 7.432,-2.38 13.935,-7.141c6.504,-4.762 17.478,-13.936 32.923,-27.523c15.445,-13.587 29.322,-25.606 41.632,-36.057c9.057,-7.897 19.567,-19.684 31.528,-35.361c11.961,-15.678 21.658,-27.465 29.09,-35.361c17.187,-18.116 28.916,-29.903 35.187,-35.361c6.271,-5.458 12.31,-8.187 18.116,-8.187c5.574,0 9.348,1.742 11.323,5.225c1.974,3.484 2.961,10.568 2.961,21.252c0,4.877 -0.465,8.826 -1.394,11.845c-0.929,3.019 -2.845,6.909 -5.748,11.671c-2.903,4.761 -8.768,13.529 -17.593,26.303c-8.826,12.774 -19.278,27.87 -31.355,45.29c-6.503,9.29 -12.193,19.451 -17.071,30.483c-4.877,11.032 -7.316,19.335 -7.316,24.91c0,12.077 4.761,18.116 14.284,18.116c7.897,0 17.071,-3.252 27.522,-9.755c10.452,-6.503 26.477,-18.232 48.077,-35.187l0,23.342c-27.174,25.083 -47.264,43.316 -60.27,54.696c-13.007,11.381 -24.271,19.974 -33.793,25.78c-9.523,5.807 -18.581,8.71 -27.174,8.71c-19.51,0 -29.265,-11.613 -29.265,-34.838c0,-8.826 2.904,-20.729 8.71,-35.71c5.806,-14.98 15.213,-36.638 28.219,-64.973Z" style="fill:#8b8b8b;fill-rule:nonzero;"/><path d="M2996.47,1285.12l0,22.645c-24.155,15.328 -43.2,22.993 -57.135,22.993c-7.665,0 -15.793,-1.277 -24.387,-3.832c-20.903,26.477 -38.845,45.87 -53.825,58.18c-14.981,12.309 -30.019,18.464 -45.116,18.464c-17.419,0 -30.832,-9.174 -40.238,-27.522c-9.407,-18.348 -14.11,-41.109 -14.11,-68.283c0,-36.929 11.148,-77.167 33.445,-120.715c22.297,-43.548 49.18,-84.309 80.651,-122.283c31.471,-37.974 61.954,-69.387 91.451,-94.238c29.496,-24.851 49.47,-37.277 59.922,-37.277c9.987,0 14.98,6.851 14.98,20.554c0,60.852 -78.038,166.993 -234.114,318.423c-0.464,4.181 -0.697,12.426 -0.697,24.736c0,32.051 8.594,48.077 25.781,48.077c6.735,0 13.529,-2.729 20.38,-8.187c6.852,-5.458 17.361,-15.852 31.529,-31.181c-5.574,-12.542 -8.361,-21.832 -8.361,-27.87c0,-12.775 5.226,-26.594 15.677,-41.458c10.452,-14.865 22.355,-27.697 35.709,-38.497c13.355,-10.799 23.052,-16.199 29.09,-16.199c9.523,0 14.284,6.851 14.284,20.554c0,10.452 -2.729,22.994 -8.187,37.626c-5.458,14.632 -13.413,31.354 -23.864,50.167c3.948,3.252 7.084,5.632 9.406,7.142c2.323,1.51 5.807,2.264 10.452,2.264c10.684,0 23.109,-4.761 37.277,-14.283ZM2819.49,1232.86c12.077,-10.451 24.213,-22.819 36.406,-37.103c12.193,-14.284 30.019,-36.174 53.477,-65.67c22.529,-28.335 40.238,-51.968 53.128,-70.896c12.891,-18.929 22.587,-34.665 29.091,-47.206c6.503,-12.542 9.754,-21.136 9.754,-25.781c0,-3.484 -0.929,-5.226 -2.787,-5.226c-5.109,0 -15.735,8.42 -31.877,25.258c-16.142,16.839 -34.548,39.89 -55.219,69.154c-28.567,40.413 -49.238,70.839 -62.012,91.277c-12.774,20.439 -22.761,42.503 -29.961,66.193Z" style="fill:#8b8b8b;fill-rule:nonzero;"/></g><path d="M417.424,1552.51c0,0 14.103,-293.835 -129.167,-510.84c-143.269,-217.006 372.371,-302.923 479.167,-237.5c36.241,22.201 -38.397,135.701 150,325c92.158,92.599 -571.908,-197.597 -525,29.166c74.022,357.838 25,394.174 25,394.174Z" style="fill:#8b8b8b;stroke-width:4.17px;stroke:#000;"/></svg>